<svg width="45" height="42" fill="none" xmlns="http://www.w3.org/2000/svg"><path d="m7.4 41.1.05.01.04.02.22.21c-.17.17-.38.3-.61.4-.28.1-.58.15-.87.14-.28 0-.56-.04-.82-.13a1.67 1.67 0 0 1-1.01-.95 1.93 1.93 0 0 1 0-1.49c.1-.21.24-.41.43-.58.18-.16.4-.29.65-.37a2.56 2.56 0 0 1 1.63-.02c.21.08.41.2.58.34l-.18.22a.18.18 0 0 1-.05.04.13.13 0 0 1-.07.02.18.18 0 0 1-.08-.03l-.1-.06-.13-.07a1.55 1.55 0 0 0-.76-.16c-.2 0-.41.03-.6.1a1.29 1.29 0 0 0-.78.73 1.5 1.5 0 0 0-.12.58c0 .2.04.41.11.6a1.24 1.24 0 0 0 .76.72c.18.06.37.1.56.1l.33-.02a1.32 1.32 0 0 0 .72-.31.17.17 0 0 1 .1-.04ZM13.7 40.05c0 .26-.04.5-.14.74-.1.21-.23.4-.41.57-.19.17-.4.3-.65.38-.53.18-1.12.18-1.66 0a1.91 1.91 0 0 1-.64-.38 1.68 1.68 0 0 1-.41-.58c-.2-.47-.2-1 0-1.47.1-.22.23-.41.41-.58.19-.16.4-.28.64-.37a2.61 2.61 0 0 1 1.66 0c.24.09.46.22.65.38a1.7 1.7 0 0 1 .55 1.31Zm-.57 0c0-.2-.03-.4-.1-.59a1.22 1.22 0 0 0-.75-.72 1.92 1.92 0 0 0-1.2 0 1.3 1.3 0 0 0-.47.28 1.2 1.2 0 0 0-.3.44c-.13.39-.13.8 0 1.19a1.2 1.2 0 0 0 .76.72c.39.12.82.12 1.2 0 .18-.07.34-.16.47-.28.13-.13.23-.28.29-.44.07-.2.1-.4.1-.6ZM18 40.67l.06.14.06-.14.07-.13 1.4-2.2c.02-.03.05-.06.07-.06a.37.37 0 0 1 .12-.02h.41v3.58h-.49v-2.86l-1.4 2.23a.2.2 0 0 1-.08.08.25.25 0 0 1-.12.03h-.08a.24.24 0 0 1-.12-.03.2.2 0 0 1-.08-.08l-1.44-2.25v2.88h-.48v-3.58h.42c.04 0 .07 0 .11.02.03.01.06.03.08.06l1.42 2.2.07.13ZM23.24 40.5v1.34h-.54v-3.58h1.21c.23 0 .46.03.68.08.18.04.34.12.48.22.12.1.22.22.28.35.06.15.1.3.09.46a1 1 0 0 1-.4.81c-.14.11-.3.2-.48.24a2.3 2.3 0 0 1-.66.09l-.66-.01Zm0-.39h.66c.15 0 .29-.01.43-.05a.92.92 0 0 0 .3-.16.69.69 0 0 0 .25-.54.6.6 0 0 0-.05-.28.69.69 0 0 0-.2-.25c-.2-.14-.46-.2-.73-.19h-.66v1.47ZM30.57 41.84h-.43a.2.2 0 0 1-.12-.03.22.22 0 0 1-.07-.08l-.37-.87h-1.86l-.39.87a.2.2 0 0 1-.2.12h-.42l1.64-3.59h.57l1.65 3.58Zm-2.7-1.33h1.54l-.65-1.45a2.37 2.37 0 0 1-.12-.34l-.06.19-.06.15-.65 1.45ZM32.93 38.28l.08.06 2.39 2.7V38.26h.48v3.58h-.27c-.04 0-.08 0-.11-.02a.3.3 0 0 1-.09-.07l-2.38-2.7v2.79h-.49v-3.58h.3c.02 0 .06 0 .09.02ZM39.9 40.42v1.42h-.54v-1.42l-1.51-2.16h.49a.2.2 0 0 1 .12.03l.07.08.94 1.4a2.15 2.15 0 0 1 .17.31l.07-.15.1-.16.92-1.4a.38.38 0 0 1 .07-.08.18.18 0 0 1 .12-.04h.5l-1.52 2.17ZM17.73 32.26l.72.06a19.95 19.95 0 0 0 8.95-6.73 16.11 16.11 0 0 0 3.18-9.9l-4.06-3.52c.83 3.73.44 7.58-1.11 11.13a20.96 20.96 0 0 1-7.68 8.96Z" fill="#AFB1B8"/><path d="m16.28 32.1.11.01c3.7-2.3 6.53-5.51 8.1-9.23a17.33 17.33 0 0 0 .76-11.59l-5.78-5.01a21.53 21.53 0 0 1 2.71 13.3 22.67 22.67 0 0 1-5.9 12.51ZM35.87 19.83a18.04 18.04 0 0 1-6.8 9.89c-1 .76-2.08 1.43-3.22 2.01 2.79-.71 5.36-1.97 7.5-3.68a16.65 16.65 0 0 0 4.86-6.2l-2.34-2.02Z" fill="#AFB1B8"/><path d="m34.95 19.26-3.34-2.9a16.76 16.76 0 0 1-3.13 9.35 20.38 20.38 0 0 1-8.16 6.67h.02c.75 0 1.5-.04 2.24-.11a20.61 20.61 0 0 0 8.07-5.15 16.95 16.95 0 0 0 4.3-7.86ZM16.77 4.16 12.79.7A18.75 18.75 0 0 0 4 6.72 15 15 0 0 0 .68 16a15.14 15.14 0 0 0 4.03 10.09 19.39 19.39 0 0 0 10.31 5.81 21.84 21.84 0 0 0 6.1-13.62 21.22 21.22 0 0 0-4.35-14.12ZM44.14 18.73c-.01-4.35-2-8.5-5.54-11.58a20.45 20.45 0 0 0-13.32-4.81c-2.31 0-4.6.37-6.76 1.1l24.36 21.15a14.35 14.35 0 0 0 1.26-5.86Z" fill="#AFB1B8"/></svg>