<svg width="85" height="42" fill="none" xmlns="http://www.w3.org/2000/svg"><path d="M13.15 13.1c-2.4 0-4.35 1.73-4.35 3.86 0 2.14 1.95 3.86 4.34 3.86 2.4 0 4.35-1.72 4.35-3.86 0-2.13-1.95-3.86-4.34-3.86ZM45.2 11.87c-.01-2.96-1.34-5.8-3.7-7.9A13.43 13.43 0 0 0 32.64.7c-3.33 0-6.53 1.18-8.88 3.28a10.6 10.6 0 0 0-3.7 7.89v16.32S45.2 25.7 45.2 11.87ZM0 33.55c0 2.06.93 4.03 2.57 5.49a9.35 9.35 0 0 0 6.17 2.28c2.32 0 4.54-.82 6.18-2.28a7.38 7.38 0 0 0 2.57-5.49V22.2S0 23.93 0 33.55Zm8.74 2.03c-.45 0-.9-.11-1.27-.34a2.1 2.1 0 0 1-.84-.91 1.83 1.83 0 0 1-.13-1.18c.09-.4.3-.75.63-1.04a2.4 2.4 0 0 1 1.17-.56c.44-.07.9-.03 1.32.12.42.15.78.41 1.03.75a1.88 1.88 0 0 1-.28 2.57c-.22.2-.47.34-.75.45-.28.1-.57.15-.88.15ZM26.42 34.46h-1.69v1.75h-.88v-4.27h2.78v.71h-1.9v1.1h1.69v.71Zm4.22-.29c0 .42-.07.79-.22 1.1a1.67 1.67 0 0 1-1.59 1 1.7 1.7 0 0 1-1.6-.98 2.51 2.51 0 0 1-.22-1.1V34c0-.43.07-.8.22-1.11a1.7 1.7 0 0 1 1.6-1c.35 0 .67.09.94.26.28.17.5.42.64.74.16.31.23.68.23 1.1v.2Zm-.89-.2c0-.44-.08-.78-.24-1.01a.78.78 0 0 0-.68-.35c-.3 0-.53.11-.69.34-.16.23-.24.57-.24 1.01v.21c0 .44.08.77.24 1.01.16.24.4.36.7.36.29 0 .51-.11.67-.34.16-.23.24-.57.24-1.01v-.21Zm3.74 1.12c0-.17-.06-.3-.17-.38a2.25 2.25 0 0 0-.64-.28c-.3-.1-.54-.2-.72-.3-.48-.26-.73-.61-.73-1.05 0-.24.07-.44.2-.62s.31-.32.56-.43c.24-.1.51-.15.82-.15.3 0 .57.06.81.17.24.1.42.26.56.47.13.2.2.43.2.68h-.88c0-.2-.07-.35-.19-.45a.75.75 0 0 0-.52-.17.8.8 0 0 0-.5.14.43.43 0 0 0-.18.36c0 .14.07.25.21.35.14.09.35.18.62.26.5.15.86.34 1.1.56.22.22.33.5.33.83 0 .37-.13.66-.41.87-.28.21-.66.32-1.13.32a2.2 2.2 0 0 1-.9-.18 1.27 1.27 0 0 1-.83-1.22h.88c0 .47.29.7.85.7.2 0 .37-.04.49-.12.11-.1.17-.21.17-.36Zm4.7-2.44h-1.31v3.56H36v-3.56h-1.3v-.7h3.48v.7Zm3.06 1.7h-1.68v1.15h1.98v.7h-2.86v-4.26h2.85v.71h-1.97v1.02h1.68v.69Zm2.4.3h-.7v1.56h-.89v-4.27h1.59c.5 0 .89.11 1.16.34.28.22.41.54.41.95 0 .3-.06.53-.19.73-.12.2-.31.35-.57.46l.92 1.75v.04h-.94l-.8-1.56Zm-.7-.72h.7c.22 0 .4-.05.51-.16a.6.6 0 0 0 .18-.47c0-.2-.05-.36-.17-.47-.11-.12-.29-.18-.52-.18h-.7v1.28Zm5.32.77v1.5h-.88v-4.26h1.66c.32 0 .6.06.85.18.24.11.43.28.56.5.13.21.2.46.2.73 0 .42-.15.75-.44 1-.28.23-.68.35-1.18.35h-.77Zm0-.7h.78c.23 0 .41-.06.53-.17.13-.11.19-.27.19-.47a.7.7 0 0 0-.19-.5.69.69 0 0 0-.5-.2h-.81v1.33Zm5.56.36h-1.69v1.14h1.98v.7h-2.86v-4.26h2.85v.71h-1.97v1.02h1.69v.69Zm4.08-1.7H56.6v3.55h-.88v-3.56h-1.29v-.7h3.48v.7Zm3.07 1.7h-1.7v1.14h1.99v.7H58.4v-4.26h2.85v.71H59.3v1.02h1.69v.69Zm2.38.29h-.7v1.56h-.88v-4.27h1.59c.5 0 .9.11 1.17.34.27.22.4.54.4.95 0 .3-.06.53-.18.73-.13.2-.32.35-.58.46l.93 1.75v.04h-.95l-.8-1.56Zm-.7-.72h.71c.22 0 .4-.05.52-.16a.6.6 0 0 0 .18-.47c0-.2-.06-.36-.18-.47-.1-.12-.28-.18-.52-.18h-.7v1.28Zm5.17 1.16c0-.17-.06-.3-.18-.38a2.25 2.25 0 0 0-.63-.28c-.3-.1-.55-.2-.72-.3-.49-.26-.73-.61-.73-1.05 0-.24.06-.44.2-.62.12-.18.31-.32.55-.43.25-.1.52-.15.82-.15.3 0 .58.06.82.17.24.1.42.26.55.47.13.2.2.43.2.68h-.88c0-.2-.06-.35-.18-.45a.75.75 0 0 0-.52-.17.8.8 0 0 0-.5.14.43.43 0 0 0-.18.36c0 .14.07.25.2.35.15.09.35.18.63.26.5.15.86.34 1.09.56.23.22.34.5.34.83 0 .37-.14.66-.42.87-.28.21-.65.32-1.13.32a2.2 2.2 0 0 1-.9-.18 1.27 1.27 0 0 1-.83-1.22h.89c0 .47.28.7.84.7.21 0 .38-.04.5-.12.11-.1.17-.21.17-.36Z" fill="#2196F3"/></svg>