<svg width="94" height="45" fill="none" xmlns="http://www.w3.org/2000/svg"><path d="M47.42 21.4a2.95 2.95 0 0 1-.6-1.98v-2.88c0-.89.2-1.56.6-2.02.4-.46 1.1-.69 2.07-.68.91 0 1.57.2 1.95.58.42.5.62 1.11.58 1.73v.67h-1.64v-.68c0-.23-.01-.45-.05-.67a.65.65 0 0 0-.23-.4.95.95 0 0 0-.6-.16 1 1 0 0 0-.62.17.77.77 0 0 0-.28.44c-.04.23-.06.47-.06.7v3.5c-.03.35.05.68.21.99.08.1.2.19.33.24a.9.9 0 0 0 .42.05.9.9 0 0 0 .58-.15.7.7 0 0 0 .25-.43c.03-.23.05-.47.05-.7V19h1.64v.65c.04.64-.16 1.28-.57 1.81-.38.43-1.02.64-1.96.64-.95 0-1.66-.23-2.07-.7ZM54.26 21.44c-.42-.45-.62-1.1-.62-1.97v-3.03c0-.86.2-1.5.62-1.95.41-.44 1.1-.66 2.08-.65.96 0 1.65.21 2.06.65.42.44.63 1.09.63 1.95v3.03c0 .86-.21 1.51-.63 1.96-.42.46-1.1.68-2.06.68s-1.67-.23-2.08-.67Zm2.84-.73c.15-.28.22-.59.2-.9V16.1c.02-.3-.05-.6-.2-.88a.78.78 0 0 0-.33-.24.9.9 0 0 0-.43-.05.92.92 0 0 0-.44.05.79.79 0 0 0-.34.24c-.14.27-.21.58-.2.88v3.73c-.01.3.05.62.2.9a1.16 1.16 0 0 0 1.19.22c.14-.05.25-.13.35-.22v-.02ZM61 13.92h1.77l1.33 5.6 1.36-5.6h1.72l.17 8.08h-1.27l-.14-5.61-1.3 5.61H63.6l-1.36-5.63-.12 5.63h-1.29l.16-8.08ZM69.33 13.92h2.75c1.59 0 2.38.77 2.38 2.3 0 1.46-.83 2.2-2.5 2.2h-.94V22h-1.7l.01-8.08Zm2.35 3.46c.17.01.34 0 .5-.04.16-.05.31-.12.44-.22.19-.27.28-.6.24-.91 0-.25-.02-.5-.08-.74a.6.6 0 0 0-.13-.22.7.7 0 0 0-.21-.16c-.24-.1-.5-.14-.76-.13h-.66v2.42h.66ZM76.9 13.92h1.83L80.61 22h-1.59l-.37-1.86h-1.63L76.64 22h-1.6l1.87-8.08Zm1.57 5.28-.64-3.39-.63 3.4h1.27ZM82.12 13.92h1.19l2.27 4.61v-4.6H87V22h-1.13l-2.29-4.8V22h-1.46v-8.08ZM90.3 18.92l-1.9-4.99H90l1.15 3.2 1.08-3.2h1.56l-1.86 5V22h-1.64v-3.08ZM50.05 25.53v.42h-1.39v3.29h-.58v-3.29h-1.4v-.42h3.37ZM54.4 29.24h-.46a.2.2 0 0 1-.12-.04.2.2 0 0 1-.08-.08l-.4-.88h-1.92l-.4.88a.24.24 0 0 1-.06.1.2.2 0 0 1-.13.03h-.45l1.7-3.7h.6l1.71 3.69Zm-2.82-1.38h1.6l-.68-1.5a2.7 2.7 0 0 1-.12-.36l-.07.2-.06.16-.67 1.5ZM57.32 28.87h.32a1.92 1.92 0 0 0 .52-.1l.22-.1v-.83h-.68a.14.14 0 0 1-.09-.03.09.09 0 0 1-.02-.03l-.01-.04v-.28h1.32v1.42a2.58 2.58 0 0 1-1.14.37c-.17.02-.33.03-.5.03-.3 0-.58-.05-.86-.14a2.09 2.09 0 0 1-.68-.39 1.8 1.8 0 0 1-.43-.58c-.11-.25-.16-.51-.16-.77a1.7 1.7 0 0 1 .6-1.36c.18-.17.42-.3.67-.39a2.85 2.85 0 0 1 1.38-.1 2.33 2.33 0 0 1 .75.24c.1.05.2.12.3.19l-.17.23a.14.14 0 0 1-.06.05.17.17 0 0 1-.07.02.22.22 0 0 1-.1-.03c-.06-.02-.11-.05-.17-.09a2.13 2.13 0 0 0-.97-.21 2 2 0 0 0-.66.1c-.2.07-.36.17-.5.3a1.3 1.3 0 0 0-.32.45c-.15.4-.15.84 0 1.24a1.45 1.45 0 0 0 1.5.83ZM62.74 28.81h1.85v.43h-2.42v-3.7h.58l-.01 3.27ZM66.52 29.24h-.58v-3.7h.58v3.7ZM68.68 25.55c.04.02.07.04.09.07l2.48 2.79v-2.89h.5v3.72h-.28c-.05 0-.09 0-.13-.02a.33.33 0 0 1-.09-.07l-2.48-2.8v2.89h-.49v-3.7h.4ZM76.04 25.53v.4h-2.06v1.23h1.67v.4h-1.67v1.26h2.06v.4h-2.66v-3.69h2.66ZM15.16 2.66l25.8 6.32v22.16l-25.8-6.32V2.66ZM13.51.76V25.9l29.1 7.14V7.9L13.5.77Z" fill="#AFB1B8"/><path d="M29.1 44.7 0 37.54V12.43l29.1 7.14v25.12Z" fill="#AFB1B8"/><path d="m13.99 2.37 25.46 6.25-10.83 9.34-25.46-6.24 10.83-9.35Zm-.48-1.6L0 12.43l29.1 7.14L42.6 7.9 13.5.77ZM30.74 43.28l11.87-10.25-11.87-2.91v13.16Z" fill="#AFB1B8"/></svg>